<?xml version="1.0" encoding="UTF-8" standalone="no"?>
<!-- Created with Inkscape (http://www.inkscape.org/) -->

<svg
   xmlns:dc="http://purl.org/dc/elements/1.1/"
   xmlns:cc="http://creativecommons.org/ns#"
   xmlns:rdf="http://www.w3.org/1999/02/22-rdf-syntax-ns#"
   xmlns:svg="http://www.w3.org/2000/svg"
   xmlns="http://www.w3.org/2000/svg"
   xmlns:sodipodi="http://sodipodi.sourceforge.net/DTD/sodipodi-0.dtd"
   xmlns:inkscape="http://www.inkscape.org/namespaces/inkscape"
   width="256px"
   height="256px"
   viewBox="0 0 256 256"
   version="1.1"
   id="SVGRoot"
   inkscape:version="0.92.4 5da689c313, 2019-01-14"
   sodipodi:docname="bat.svg"
   inkscape:export-filename="/home/petr/data/Drawings/bat.svg.png"
   inkscape:export-xdpi="96"
   inkscape:export-ydpi="96">
  <defs
     id="defs10">
    <inkscape:path-effect
       effect="spiro"
       id="path-effect3799"
       is_visible="true" />
    <inkscape:path-effect
       effect="spiro"
       id="path-effect3795"
       is_visible="true" />
    <inkscape:path-effect
       effect="spiro"
       id="path-effect3791"
       is_visible="true" />
    <inkscape:path-effect
       effect="spiro"
       id="path-effect3787"
       is_visible="true" />
    <inkscape:path-effect
       effect="spiro"
       id="path-effect3783"
       is_visible="true" />
    <inkscape:path-effect
       effect="spiro"
       id="path-effect3779"
       is_visible="true" />
    <inkscape:path-effect
       effect="spiro"
       id="path-effect3775"
       is_visible="true" />
    <inkscape:path-effect
       effect="spiro"
       id="path-effect49"
       is_visible="true" />
    <inkscape:path-effect
       effect="mirror_symmetry"
       start_point="128,0"
       end_point="128,256"
       center_point="128,128"
       id="path-effect38"
       is_visible="true"
       mode="vertical"
       discard_orig_path="false"
       fuse_paths="false"
       oposite_fuse="false" />
    <inkscape:path-effect
       effect="spiro"
       id="path-effect31"
       is_visible="true" />
  </defs>
  <sodipodi:namedview
     id="base"
     pagecolor="#ffffff"
     bordercolor="#666666"
     borderopacity="1.0"
     inkscape:pageopacity="0.0"
     inkscape:pageshadow="2"
     inkscape:zoom="2.8284271"
     inkscape:cx="177.19567"
     inkscape:cy="141.33177"
     inkscape:document-units="px"
     inkscape:current-layer="layer1"
     showgrid="false"
     inkscape:window-width="1920"
     inkscape:window-height="1052"
     inkscape:window-x="0"
     inkscape:window-y="28"
     inkscape:window-maximized="0"
     inkscape:grid-bbox="true"
     showguides="true"
     inkscape:guide-bbox="true">
    <sodipodi:guide
       position="130.125,230.375"
       orientation="1,0"
       id="guide36"
       inkscape:locked="false" />
    <sodipodi:guide
       position="101.29305,206.03324"
       orientation="0,1"
       id="guide45"
       inkscape:locked="false" />
  </sodipodi:namedview>
  <metadata
     id="metadata13">
    <rdf:RDF>
      <cc:Work
         rdf:about="">
        <dc:format>image/svg+xml</dc:format>
        <dc:type
           rdf:resource="http://purl.org/dc/dcmitype/StillImage" />
        <dc:title />
      </cc:Work>
    </rdf:RDF>
  </metadata>
  <g
     inkscape:label="Layer 1"
     inkscape:groupmode="layer"
     id="layer1">
    <path
       style="fill:#1a1a1a;stroke:#1a1a1a;stroke-width:1.53811193px;stroke-linecap:butt;stroke-linejoin:miter;stroke-opacity:1"
       d="m 251.17016,232.23682 c -24.82567,-5.55563 -50.11443,-30.09524 -74.29472,-9.18885 -16.89786,-14.25819 -34.18736,-29.79116 -46.75044,-9.16259 -11.02392,-16.223 -21.85413,-32.80281 -46.305326,-24.29137 -9.718693,6.47821 -16.71679,5.70146 -22.091502,0.5957 -5.021268,-10.24886 -3.716601,-16.47259 0.846316,-23.18668 5.802596,-27.25843 -9.370904,-33.61065 -22.591011,-44.31686 3.201875,-12.03091 29.04951,-7.72114 -11.134595,-49.935724 31.035649,-12.289147 0.245011,-45.18707 -7.602265,-70.437199 m 0,0 c 62.156638,52.725196 61.153764,68.46508 68.725494,89.226142 -13.733531,20.315901 -11.593987,40.631801 -7.113764,60.947691 3.651967,-1.27927 6.209376,-1.3519 10.316483,-1.84269 2.197896,-4.11281 4.365197,-8.66488 8.95065,-10.59076 2.1979,-0.65793 3.20459,-5.28911 9.66411,-8.77679 -0.80289,3.07851 -4.38866,11.61508 -4.30259,13.15402 l 2.64246,2.67553 c 3.78122,-1.85857 9.01539,-3.35174 12.79659,-5.21031 -2.70312,5.74799 -5.80353,8.97435 -7.80036,11.27797 -1.50219,5.12066 -5.59078,6.61995 -9.75029,9.63477 -0.18571,4.25494 -0.34268,7.2915 -1.19303,10.28742 20.54629,2.7833 50.3866,-2.65681 62.05244,-13.28296 28.77817,8.56438 54.10257,43.11616 84.93531,72.42354"
       id="path3797"
       inkscape:connector-curvature="0"
       sodipodi:nodetypes="ccccccccccccccccccccccc"
       inkscape:export-xdpi="96"
       inkscape:export-ydpi="96" />
  </g>
</svg>
